Coordinates
version=1
nRows=21
nColumns=22
inDegrees=yes

Units are S.I. units (second, meters, Newtons, ...)
If the header above contains a line with 'inDegrees', this indicates whether rotational values are in degrees (yes) or radians (no).

endheader
time	pelvis_tilt	pelvis_list	pelvis_rotation	pelvis_tx	pelvis_ty	pelvis_tz	hip_flexion_r	hip_adduction_r	hip_rotation_r	knee_angle_r	ankle_angle_r	subtalar_angle_r	hip_flexion_l	hip_adduction_l	hip_rotation_l	knee_angle_l	ankle_angle_l	subtalar_angle_l	lumbar_extension	lumbar_bending	lumbar_rotation
      0.01000000	      1.46291061	     -3.67848165	     -4.61504227	      0.19103117	      1.01955112	      0.84970253	      3.13723421	      5.78999464	     -2.48117468	    -17.18047442	     11.70437751	     -2.68814887	      3.49048133	     -3.26180049	     -8.48040705	    -17.43733394	     13.10718292	     -3.57435131	    -11.78763488	      3.29526825	      0.98654966
      0.02000000	      1.46610706	     -3.67669725	     -4.61014989	      0.19098174	      1.01955166	      0.84966211	      3.13818715	      5.78673924	     -2.47867220	    -17.18298195	     11.70370960	     -2.68884708	      3.49041574	     -3.25822313	     -8.48166107	    -17.43569415	     13.10700500	     -3.57595984	    -11.78941245	      3.30366891	      0.99004201
      0.03000000	      1.47879366	     -3.67395771	     -4.61176091	      0.19090451	      1.01956008	      0.84962541	      3.14516711	      5.78231848	     -2.46803708	    -17.21244840	     11.70117743	     -2.69310083	      3.48012941	     -3.25187587	     -8.47842577	    -17.43353114	     13.10415698	     -3.58549013	    -11.80771685	      3.31005899	      1.00369278
      0.04000000	      1.48442574	     -3.66998157	     -4.60255555	      0.19087705	      1.01955842	      0.84956573	      3.14546253	      5.77704055	     -2.46219681	    -17.21907497	     11.70115382	     -2.69380234	      3.47777028	     -3.24478324	     -8.48055243	    -17.43378053	     13.10403682	     -3.58660538	    -11.80591571	      3.32056107	      1.00797017
      0.05000000	      1.50435341	     -3.65803700	     -4.60279578	      0.19078859	      1.01956785	      0.84951602	      3.15646144	      5.76341209	     -2.42824973	    -17.26993657	     11.70759349	     -2.69832931	      3.46496039	     -3.22706412	     -8.47165157	    -17.43754526	     13.10262725	     -3.59385347	    -11.83450769	      3.31940349	      1.01444100
      0.06000000	      1.52435272	     -3.64097662	     -4.60069576	      0.19074259	      1.01957817	      0.84945329	      3.16007755	      5.74475042	     -2.39004958	    -17.31039908	     11.72464850	     -2.70293178	      3.44836826	     -3.20225258	     -8.46663709	    -17.43756180	     13.10035649	     -3.60203435	    -11.85548204	      3.31450875	      1.02196151
      0.07000000	      1.54495702	     -3.62497167	     -4.59596080	      0.19071187	      1.01958748	      0.84938947	      3.16199590	      5.72766589	     -2.35101073	    -17.35095394	     11.74266046	     -2.70635440	      3.43197387	     -3.17866170	     -8.46059097	    -17.43994750	     13.09722511	     -3.60905400	    -11.87605874	      3.31287394	      1.02475648
      0.08000000	      1.56765974	     -3.60968307	     -4.59197911	      0.19068995	      1.01959758	      0.84933296	      3.16249458	      5.71127597	     -2.31223045	    -17.39393734	     11.76266972	     -2.70869068	      3.41435177	     -3.15595698	     -8.45225788	    -17.44640265	     13.09498895	     -3.61587639	    -11.89795288	      3.31000872	      1.02624658
      0.09000000	      1.59069260	     -3.59541180	     -4.58931952	      0.19066747	      1.01960745	      0.84928975	      3.16318063	      5.69609227	     -2.27819052	    -17.43794971	     11.78422452	     -2.70987538	      3.39727539	     -3.13490082	     -8.44471178	    -17.45464698	     13.09424567	     -3.62274776	    -11.92359437	      3.30787836	      1.02760296
      0.10000000	      1.62737438	     -3.57042079	     -4.59846081	      0.19068175	      1.01963452	      0.84929139	      3.14611902	      5.66808421	     -2.25085208	    -17.47983152	     11.83894943	     -2.70712766	      3.35503041	     -3.10268303	     -8.45143600	    -17.44949263	     13.09346923	     -3.64249725	    -11.95764877	      3.28348725	      1.04392173
      0.11000000	      1.64423379	     -3.56712246	     -4.59716342	      0.19064640	      1.01963689	      0.84927754	      3.15205574	      5.66426709	     -2.23512253	    -17.51880995	     11.84000198	     -2.70627519	      3.34819725	     -3.09694016	     -8.44543622	    -17.46516698	     13.09254507	     -3.64624978	    -11.98204011	      3.29276620	      1.03979414
      0.12000000	      1.66261657	     -3.56230642	     -4.59898200	      0.19062128	      1.01963716	      0.84929525	      3.15574062	      5.65917765	     -2.22763257	    -17.55893941	     11.85008312	     -2.70532923	      3.33987482	     -3.09158573	     -8.44256437	    -17.48399203	     13.09719505	     -3.65096104	    -12.00605851	      3.29438605	      1.04074774
      0.13000000	      1.68115784	     -3.55674774	     -4.60310844	      0.19059837	      1.01963663	      0.84932698	      3.15893121	      5.65263327	     -2.22664320	    -17.59899521	     11.86473454	     -2.70443466	      3.33030791	     -3.08665485	     -8.44532152	    -17.50157483	     13.10478385	     -3.65643786	    -12.03025839	      3.29275663	      1.04157763
      0.14000000	      1.69836540	     -3.55053506	     -4.60786555	      0.19058743	      1.01963567	      0.84936416	      3.15981789	      5.64532623	     -2.22972269	    -17.63366341	     11.87987177	     -2.70385995	      3.32063085	     -3.08143851	     -8.45262443	    -17.51708398	     13.11272691	     -3.66195524	    -12.05054878	      3.28905751	      1.04142629
      0.15000000	      1.71394862	     -3.54402225	     -4.61302218	      0.19058324	      1.01963352	      0.84940638	      3.15882611	      5.63729044	     -2.23371839	    -17.66268224	     11.89331215	     -2.70393457	      3.31141113	     -3.07664076	     -8.46148065	    -17.53139278	     13.11954512	     -3.66681631	    -12.06715055	      3.28452590	      1.03953635
      0.16000000	      1.72910119	     -3.53709627	     -4.61758660	      0.19059141	      1.01963343	      0.84944738	      3.15495983	      5.62813612	     -2.23816164	    -17.68721375	     11.90649261	     -2.70475015	      3.30194438	     -3.07174832	     -8.47129145	    -17.54550806	     13.12563935	     -3.67106938	    -12.08026997	      3.27881162	      1.03705460
      0.17000000	      1.73358142	     -3.53522897	     -4.62418189	      0.19062836	      1.01962722	      0.84949034	      3.15079004	      5.62541887	     -2.23899363	    -17.69269355	     11.90749658	     -2.70492007	      3.29764822	     -3.07138940	     -8.47018942	    -17.55259272	     13.12582015	     -3.67137696	    -12.07423990	      3.28063727	      1.03518087
      0.18000000	      1.74897909	     -3.52780920	     -4.63443482	      0.19062439	      1.01963190	      0.84952883	      3.14800612	      5.61397492	     -2.24436636	    -17.71877463	     11.91961559	     -2.70615508	      3.29258036	     -3.06547060	     -8.47884853	    -17.57629660	     13.13256753	     -3.67345468	    -12.09071423	      3.27461338	      1.02574744
      0.19000000	      1.75349421	     -3.52637424	     -4.64071443	      0.19067219	      1.01963199	      0.84956547	      3.14242870	      5.61034012	     -2.24606775	    -17.72367365	     11.92125260	     -2.70618589	      3.28717687	     -3.06554253	     -8.47817376	    -17.58320435	     13.13279074	     -3.67357038	    -12.08096644	      3.27574514	      1.02372270
      0.20000000	      1.75779425	     -3.52434451	     -4.65032775	      0.19070784	      1.01963595	      0.84959842	      3.13793439	      5.60531374	     -2.24957187	    -17.72845343	     11.92415630	     -2.70602732	      3.28233168	     -3.06436074	     -8.47889544	    -17.59037552	     13.13349062	     -3.67371426	    -12.07377125	      3.27687153	      1.01912797
      0.21000000	      1.77228441	     -3.50024578	     -4.65460197	      0.19073063	      1.01964557	      0.84961046	      3.13491882	      5.57101544	     -2.28328485	    -17.75290095	     11.97006670	     -2.69840384	      3.26901536	     -3.04028182	     -8.50735150	    -17.59391645	     13.13760748	     -3.67380064	    -12.08052076	      3.25102494	      0.99819512
